<svg version="1.1" id="Layer_1" xmlns="http://www.w3.org/2000/svg" xmlns:xlink="http://www.w3.org/1999/xlink" x="0px" y="0px"
	 width="100%" viewBox="0 0 512 512" enable-background="new 0 0 512 512" xml:space="preserve">

<path fill="#1A68C4" opacity="1.000000" stroke="none" 
	d="
M52.191799,472.376892 
	C188.335632,472.022675 324.731171,472.022339 461.598999,472.033081 
	C460.538177,472.364014 459.005157,472.963654 457.471985,472.964081 
	C323.785980,473.001892 190.100006,472.994232 56.414005,472.977631 
	C55.090500,472.977478 53.767014,472.816620 52.191799,472.376892 
z"/>
<path fill="#1258B2" opacity="1.000000" stroke="none" 
	d="
M290.862061,267.611328 
	C267.359985,267.976196 243.597763,267.988373 219.359406,267.986877 
	C219.583771,267.643707 220.284775,267.025513 220.984711,267.026733 
	C244.190491,267.067444 267.396179,267.167389 290.862061,267.611328 
z"/>
<path fill="#1A78D5" opacity="1.000000" stroke="none" 
	d="
M154.602112,132.069443 
	C155.012436,139.972702 155.055954,148.126892 155.043152,156.764343 
	C154.661697,154.729538 154.094894,152.214767 154.060272,149.692703 
	C153.980804,143.903824 154.160706,138.111374 154.602112,132.069443 
z"/>
<path fill="#145FBA" opacity="1.000000" stroke="none" 
	d="
M244.068390,246.398376 
	C251.925354,246.027237 260.035187,246.022247 268.619202,246.025421 
	C265.599731,246.344818 262.110474,246.839813 258.611450,246.922424 
	C253.851944,247.034805 249.085007,246.832108 244.068390,246.398376 
z"/>

<path fill="#1976D2" opacity="1.000000" stroke="none" 
	d="M279.974487,288.051605 
	C331.747131,288.580811 374.734375,308.645416 408.972687,347.119781 
	C432.786621,373.880005 446.325043,405.532928 450.640472,441.103821 
	C450.840576,442.753235 450.873413,444.422668 450.993805,446.082062 
	C451.246399,449.564117 449.675842,451.446228 446.147705,451.579529 
	C443.985291,451.661255 441.821228,451.749329 439.657898,451.749542 
	C358.888428,451.758240 278.118958,451.761169 197.349472,451.739563 
	C194.525452,451.738800 191.701508,451.480011 188.574066,451.009644 
	C198.358475,440.108704 209.054123,430.049316 218.423767,418.877808 
	C250.407410,380.743378 270.866669,337.028229 279.974487,288.051605 
z"/>
<path fill="#1E88E5" opacity="1.000000" stroke="none" 
	d="
M279.509796,288.002686 
	C270.866669,337.028229 250.407410,380.743378 218.423767,418.877808 
	C209.054123,430.049316 198.358475,440.108704 188.111115,450.911743 
	C185.463562,451.313751 182.975632,451.625977 180.487442,451.628143 
	C144.163788,451.659760 107.840088,451.657227 71.516403,451.644745 
	C62.678223,451.641724 62.310272,451.217407 63.135906,442.667236 
	C69.786407,373.795288 120.500504,313.351959 187.222656,294.589966 
	C203.872513,289.908142 220.772659,287.619202 238.058319,287.824615 
	C251.719162,287.986969 265.382751,287.919281 279.509796,288.002686 
z"/>
<path fill="#1E88E5" opacity="1.000000" stroke="none" 
	d="
M283.960724,220.913223 
	C272.634521,226.557739 260.468048,226.898819 248.338425,225.711761 
	C211.447662,222.101425 181.049316,192.740509 176.033676,156.382950 
	C170.793121,118.394958 191.364761,82.469345 226.411957,68.419365 
	C227.337112,68.048485 228.299194,67.769669 229.722122,67.674118 
	C231.254425,69.596924 232.223419,71.353897 233.375854,72.980949 
	C247.132339,92.402977 257.848175,113.426872 266.247131,135.646286 
	C276.634857,163.126907 282.498566,191.568024 283.960724,220.913223 
z"/>
<path fill="#1976D2" opacity="1.000000" stroke="none" 
	d="
M284.341003,220.902832 
	C282.498566,191.568024 276.634857,163.126907 266.247131,135.646286 
	C257.848175,113.426872 247.132339,92.402977 233.375854,72.980949 
	C232.223419,71.353897 231.254425,69.596924 230.063080,67.600838 
	C278.035828,50.293766 330.308472,80.781052 337.840515,132.130157 
	C343.036438,167.552811 326.381317,199.891510 295.319794,216.606003 
	C291.984009,218.400986 288.263367,219.480835 284.341003,220.902832 
z"/>
</svg>